# xmcd
#
# Track frame offsets:
#	150
#	13952
#	29882
#	49240
#	60301
#	74654
#	90728
#	100674
#	112598
#	136222
#	148135
#	157974
#	171371
#	182526
#
# Disc length: 2620 seconds
#
# Revision: 1
# Processed by: cddbd v1.4PL0 Copyright (c) Steve Scherf et al.
# Submitted via: audiograbber 1.82.02
#
DISCID=c10a3a0e
DTITLE=Touch Of Blues - Foxtracks
DYEAR=1900
DGENRE=Blues
TTITLE0=Movin' Down The Hill
TTITLE1=Blues Talkin'
TTITLE2=Midnight Rambler
TTITLE3=The Zipper
TTITLE4=A Tribute To Mr Junior Wells and Mr Buddy Guy
TTITLE5=Make Me Dream Again
TTITLE6=Blues After Midnight
TTITLE7=Little Walter Boogie
TTITLE8=Angel Of Mercy
TTITLE9=It's Been A Long Time
TTITLE10=Rock The Night
TTITLE11=Next Time You See Me
TTITLE12=Street Corny
TTITLE13=Sneak Around
EXTD=
EXTT0=
EXTT1=
EXTT2=
EXTT3=
EXTT4=
EXTT5=
EXTT6=
EXTT7=
EXTT8=
EXTT9=
EXTT10=
EXTT11=
EXTT12=
EXTT13=
PLAYORDER=
